%TF.GenerationSoftware,KiCad,Pcbnew,8.0.6*%
%TF.CreationDate,2024-12-14T14:55:46+02:00*%
%TF.ProjectId,Breadboard_Power_Supply,42726561-6462-46f6-9172-645f506f7765,rev?*%
%TF.SameCoordinates,Original*%
%TF.FileFunction,Copper,L2,Bot*%
%TF.FilePolarity,Positive*%
%FSLAX46Y46*%
G04 Gerber Fmt 4.6, Leading zero omitted, Abs format (unit mm)*
G04 Created by KiCad (PCBNEW 8.0.6) date 2024-12-14 14:55:46*
%MOMM*%
%LPD*%
G01*
G04 APERTURE LIST*
G04 Aperture macros list*
%AMRoundRect*
0 Rectangle with rounded corners*
0 $1 Rounding radius*
0 $2 $3 $4 $5 $6 $7 $8 $9 X,Y pos of 4 corners*
0 Add a 4 corners polygon primitive as box body*
4,1,4,$2,$3,$4,$5,$6,$7,$8,$9,$2,$3,0*
0 Add four circle primitives for the rounded corners*
1,1,$1+$1,$2,$3*
1,1,$1+$1,$4,$5*
1,1,$1+$1,$6,$7*
1,1,$1+$1,$8,$9*
0 Add four rect primitives between the rounded corners*
20,1,$1+$1,$2,$3,$4,$5,0*
20,1,$1+$1,$4,$5,$6,$7,0*
20,1,$1+$1,$6,$7,$8,$9,0*
20,1,$1+$1,$8,$9,$2,$3,0*%
G04 Aperture macros list end*
%TA.AperFunction,ComponentPad*%
%ADD10C,1.600000*%
%TD*%
%TA.AperFunction,ComponentPad*%
%ADD11R,2.600000X2.600000*%
%TD*%
%TA.AperFunction,ComponentPad*%
%ADD12C,2.600000*%
%TD*%
%TA.AperFunction,ComponentPad*%
%ADD13R,1.900000X1.900000*%
%TD*%
%TA.AperFunction,ComponentPad*%
%ADD14C,1.900000*%
%TD*%
%TA.AperFunction,ComponentPad*%
%ADD15R,1.905000X2.000000*%
%TD*%
%TA.AperFunction,ComponentPad*%
%ADD16O,1.905000X2.000000*%
%TD*%
%TA.AperFunction,ComponentPad*%
%ADD17O,1.400000X1.400000*%
%TD*%
%TA.AperFunction,ComponentPad*%
%ADD18C,1.400000*%
%TD*%
%TA.AperFunction,ComponentPad*%
%ADD19R,1.800000X1.800000*%
%TD*%
%TA.AperFunction,ComponentPad*%
%ADD20C,1.800000*%
%TD*%
%TA.AperFunction,ComponentPad*%
%ADD21R,3.500000X3.500000*%
%TD*%
%TA.AperFunction,ComponentPad*%
%ADD22RoundRect,0.750000X-0.750000X-1.000000X0.750000X-1.000000X0.750000X1.000000X-0.750000X1.000000X0*%
%TD*%
%TA.AperFunction,ComponentPad*%
%ADD23RoundRect,0.875000X-0.875000X-0.875000X0.875000X-0.875000X0.875000X0.875000X-0.875000X0.875000X0*%
%TD*%
%TA.AperFunction,ComponentPad*%
%ADD24R,2.000000X1.905000*%
%TD*%
%TA.AperFunction,ComponentPad*%
%ADD25O,2.000000X1.905000*%
%TD*%
%TA.AperFunction,ComponentPad*%
%ADD26R,1.700000X1.700000*%
%TD*%
%TA.AperFunction,ComponentPad*%
%ADD27O,1.700000X1.700000*%
%TD*%
%TA.AperFunction,Conductor*%
%ADD28C,0.350000*%
%TD*%
G04 APERTURE END LIST*
D10*
%TO.P,C3,1*%
%TO.N,/3.3V*%
X71350000Y-45250000D03*
%TO.P,C3,2*%
%TO.N,GND*%
X68850000Y-45250000D03*
%TD*%
D11*
%TO.P,J5,1,Pin_1*%
%TO.N,GND*%
X74705000Y-55400000D03*
D12*
%TO.P,J5,2,Pin_2*%
%TO.N,/PWR_output*%
X74705000Y-50400000D03*
%TD*%
D13*
%TO.P,S1,1*%
%TO.N,/12V*%
X45450000Y-44200000D03*
D14*
%TO.P,S1,2*%
%TO.N,/PWR_input*%
X42950000Y-44200000D03*
%TO.P,S1,3*%
%TO.N,unconnected-(S1-Pad3)*%
X40450000Y-44200000D03*
%TD*%
D15*
%TO.P,U2,1,ADJ*%
%TO.N,Net-(U2-ADJ)*%
X58740000Y-40505000D03*
D16*
%TO.P,U2,2,VO*%
%TO.N,/3.3V*%
X56200000Y-40505000D03*
%TO.P,U2,3,VI*%
%TO.N,/12V*%
X53660000Y-40505000D03*
%TD*%
D17*
%TO.P,R2,2*%
%TO.N,Net-(U2-ADJ)*%
X63990000Y-38600000D03*
D18*
%TO.P,R2,1*%
%TO.N,/3.3V*%
X71610000Y-38600000D03*
%TD*%
D19*
%TO.P,D1,1,K*%
%TO.N,GND*%
X64775000Y-47500000D03*
D20*
%TO.P,D1,2,A*%
%TO.N,Net-(D1-A)*%
X62235000Y-47500000D03*
%TD*%
D21*
%TO.P,J6,1*%
%TO.N,/PWR_input*%
X50550000Y-53300000D03*
D22*
%TO.P,J6,2*%
%TO.N,GND*%
X44550000Y-53300000D03*
D23*
%TO.P,J6,3*%
X47550000Y-58000000D03*
%TD*%
D18*
%TO.P,R3,1*%
%TO.N,Net-(U2-ADJ)*%
X63940000Y-41900000D03*
D17*
%TO.P,R3,2*%
%TO.N,GND*%
X71560000Y-41900000D03*
%TD*%
D24*
%TO.P,U1,1,VI*%
%TO.N,/12V*%
X55750000Y-51150000D03*
D25*
%TO.P,U1,2,GND*%
%TO.N,GND*%
X55750000Y-53690000D03*
%TO.P,U1,3,VO*%
%TO.N,/5V*%
X55750000Y-56230000D03*
%TD*%
D18*
%TO.P,R1,1*%
%TO.N,/12V*%
X61800000Y-59470000D03*
D17*
%TO.P,R1,2*%
%TO.N,Net-(D1-A)*%
X61800000Y-51850000D03*
%TD*%
D10*
%TO.P,C2,1*%
%TO.N,/5V*%
X66000000Y-56750000D03*
%TO.P,C2,2*%
%TO.N,GND*%
X66000000Y-54250000D03*
%TD*%
%TO.P,C1,1*%
%TO.N,/12V*%
X55600000Y-46700000D03*
%TO.P,C1,2*%
%TO.N,GND*%
X53100000Y-46700000D03*
%TD*%
D26*
%TO.P,J3,1,Pin_1*%
%TO.N,/3.3V*%
X76025000Y-39350000D03*
D27*
%TO.P,J3,2,Pin_2*%
%TO.N,/PWR_output*%
X76025000Y-41890000D03*
%TO.P,J3,3,Pin_3*%
%TO.N,/5V*%
X76025000Y-44430000D03*
%TD*%
D28*
%TO.N,/12V*%
X59900000Y-50450000D02*
X59900000Y-54500000D01*
X57750000Y-48300000D02*
X59900000Y-50450000D01*
X53660000Y-41510000D02*
X57750000Y-45600000D01*
X57750000Y-45600000D02*
X57750000Y-48300000D01*
X53660000Y-40505000D02*
X53660000Y-41510000D01*
X58050000Y-51150000D02*
X59900000Y-53000000D01*
X55750000Y-51150000D02*
X58050000Y-51150000D01*
X59900000Y-53000000D02*
X59900000Y-54500000D01*
X59900000Y-54500000D02*
X59900000Y-57650000D01*
X59900000Y-57650000D02*
X61720000Y-59470000D01*
X61720000Y-59470000D02*
X61800000Y-59470000D01*
%TD*%
M02*
